<mxfile host="app.diagrams.net" modified="2020-11-04T11:52:33.486Z" agent="5.0 (Windows NT 10.0; Win64; x64) AppleWebKit/537.36 (KHTML, like Gecko) Chrome/84.0.4147.89 Safari/537.36" etag="STPWPyWmkOaEQR36kfxS" version="13.8.6" type="github">
  <diagram id="fdae64WWO7413-Mmr3JU" name="第 1 页">
    <mxGraphModel dx="1038" dy="548" grid="1" gridSize="10" guides="1" tooltips="1" connect="1" arrows="1" fold="1" page="1" pageScale="1" pageWidth="850" pageHeight="1100" math="0" shadow="0">
      <root>
        <mxCell id="0" />
        <mxCell id="1" parent="0" />
        <mxCell id="Py9lNmwTSeVSUUbc_rpV-1" value="ApplicationManager" style="rounded=0;whiteSpace=wrap;html=1;" vertex="1" parent="1">
          <mxGeometry x="350" y="380" width="120" height="60" as="geometry" />
        </mxCell>
        <mxCell id="Py9lNmwTSeVSUUbc_rpV-2" value="" style="rounded=0;whiteSpace=wrap;html=1;" vertex="1" parent="1">
          <mxGeometry x="210" y="120" width="400" height="190" as="geometry" />
        </mxCell>
        <mxCell id="Py9lNmwTSeVSUUbc_rpV-3" value="AMLivelinessMonitor" style="rounded=0;whiteSpace=wrap;html=1;" vertex="1" parent="1">
          <mxGeometry x="275" y="150" width="270" height="40" as="geometry" />
        </mxCell>
        <mxCell id="Py9lNmwTSeVSUUbc_rpV-7" style="edgeStyle=orthogonalEdgeStyle;rounded=0;orthogonalLoop=1;jettySize=auto;html=1;exitX=0.5;exitY=1;exitDx=0;exitDy=0;entryX=0;entryY=0.5;entryDx=0;entryDy=0;" edge="1" parent="1" source="Py9lNmwTSeVSUUbc_rpV-5" target="Py9lNmwTSeVSUUbc_rpV-1">
          <mxGeometry relative="1" as="geometry" />
        </mxCell>
        <mxCell id="Py9lNmwTSeVSUUbc_rpV-8" value="1、startContainer" style="edgeLabel;html=1;align=center;verticalAlign=middle;resizable=0;points=[];" vertex="1" connectable="0" parent="Py9lNmwTSeVSUUbc_rpV-7">
          <mxGeometry x="-0.0376" relative="1" as="geometry">
            <mxPoint y="-9" as="offset" />
          </mxGeometry>
        </mxCell>
        <mxCell id="Py9lNmwTSeVSUUbc_rpV-12" style="edgeStyle=orthogonalEdgeStyle;rounded=0;orthogonalLoop=1;jettySize=auto;html=1;exitX=0.5;exitY=0;exitDx=0;exitDy=0;entryX=0;entryY=0.5;entryDx=0;entryDy=0;" edge="1" parent="1" source="Py9lNmwTSeVSUUbc_rpV-5" target="Py9lNmwTSeVSUUbc_rpV-3">
          <mxGeometry relative="1" as="geometry" />
        </mxCell>
        <mxCell id="Py9lNmwTSeVSUUbc_rpV-13" value="2、add" style="edgeLabel;html=1;align=center;verticalAlign=middle;resizable=0;points=[];" vertex="1" connectable="0" parent="Py9lNmwTSeVSUUbc_rpV-12">
          <mxGeometry x="0.1477" relative="1" as="geometry">
            <mxPoint y="-15" as="offset" />
          </mxGeometry>
        </mxCell>
        <mxCell id="Py9lNmwTSeVSUUbc_rpV-5" value="ApplicationMasterLauncher" style="rounded=0;whiteSpace=wrap;html=1;" vertex="1" parent="1">
          <mxGeometry x="220" y="250" width="170" height="40" as="geometry" />
        </mxCell>
        <mxCell id="Py9lNmwTSeVSUUbc_rpV-18" style="edgeStyle=orthogonalEdgeStyle;rounded=0;orthogonalLoop=1;jettySize=auto;html=1;exitX=0.25;exitY=0;exitDx=0;exitDy=0;" edge="1" parent="1" source="Py9lNmwTSeVSUUbc_rpV-6" target="Py9lNmwTSeVSUUbc_rpV-3">
          <mxGeometry relative="1" as="geometry" />
        </mxCell>
        <mxCell id="Py9lNmwTSeVSUUbc_rpV-19" value="5、update expire time" style="edgeLabel;html=1;align=center;verticalAlign=middle;resizable=0;points=[];" vertex="1" connectable="0" parent="Py9lNmwTSeVSUUbc_rpV-18">
          <mxGeometry x="0.321" relative="1" as="geometry">
            <mxPoint as="offset" />
          </mxGeometry>
        </mxCell>
        <mxCell id="Py9lNmwTSeVSUUbc_rpV-24" style="edgeStyle=orthogonalEdgeStyle;rounded=0;orthogonalLoop=1;jettySize=auto;html=1;exitX=0.75;exitY=0;exitDx=0;exitDy=0;entryX=0.781;entryY=1.005;entryDx=0;entryDy=0;entryPerimeter=0;" edge="1" parent="1" source="Py9lNmwTSeVSUUbc_rpV-6" target="Py9lNmwTSeVSUUbc_rpV-3">
          <mxGeometry relative="1" as="geometry" />
        </mxCell>
        <mxCell id="Py9lNmwTSeVSUUbc_rpV-25" value="7、remove" style="edgeLabel;html=1;align=center;verticalAlign=middle;resizable=0;points=[];" vertex="1" connectable="0" parent="Py9lNmwTSeVSUUbc_rpV-24">
          <mxGeometry x="-0.4614" y="11" relative="1" as="geometry">
            <mxPoint x="-11" y="-13" as="offset" />
          </mxGeometry>
        </mxCell>
        <mxCell id="Py9lNmwTSeVSUUbc_rpV-6" value="ApplicationMasterService" style="rounded=0;whiteSpace=wrap;html=1;" vertex="1" parent="1">
          <mxGeometry x="410" y="250" width="170" height="40" as="geometry" />
        </mxCell>
        <mxCell id="Py9lNmwTSeVSUUbc_rpV-14" style="edgeStyle=orthogonalEdgeStyle;rounded=0;orthogonalLoop=1;jettySize=auto;html=1;entryX=0.25;entryY=1;entryDx=0;entryDy=0;" edge="1" parent="1" source="Py9lNmwTSeVSUUbc_rpV-1" target="Py9lNmwTSeVSUUbc_rpV-6">
          <mxGeometry relative="1" as="geometry" />
        </mxCell>
        <mxCell id="Py9lNmwTSeVSUUbc_rpV-15" value="3、registerApplicationMaster" style="edgeLabel;html=1;align=center;verticalAlign=middle;resizable=0;points=[];" vertex="1" connectable="0" parent="Py9lNmwTSeVSUUbc_rpV-14">
          <mxGeometry x="0.28" relative="1" as="geometry">
            <mxPoint as="offset" />
          </mxGeometry>
        </mxCell>
        <mxCell id="Py9lNmwTSeVSUUbc_rpV-16" style="edgeStyle=orthogonalEdgeStyle;rounded=0;orthogonalLoop=1;jettySize=auto;html=1;exitX=1;exitY=0.25;exitDx=0;exitDy=0;entryX=0.75;entryY=1;entryDx=0;entryDy=0;" edge="1" parent="1" source="Py9lNmwTSeVSUUbc_rpV-1" target="Py9lNmwTSeVSUUbc_rpV-6">
          <mxGeometry relative="1" as="geometry" />
        </mxCell>
        <mxCell id="Py9lNmwTSeVSUUbc_rpV-17" value="4、allocate" style="edgeLabel;html=1;align=center;verticalAlign=middle;resizable=0;points=[];" vertex="1" connectable="0" parent="Py9lNmwTSeVSUUbc_rpV-16">
          <mxGeometry x="-0.2174" y="28" relative="1" as="geometry">
            <mxPoint x="2" as="offset" />
          </mxGeometry>
        </mxCell>
        <mxCell id="Py9lNmwTSeVSUUbc_rpV-20" style="edgeStyle=orthogonalEdgeStyle;rounded=0;orthogonalLoop=1;jettySize=auto;html=1;exitX=1;exitY=0.75;exitDx=0;exitDy=0;entryX=1;entryY=0.5;entryDx=0;entryDy=0;" edge="1" parent="1" source="Py9lNmwTSeVSUUbc_rpV-1" target="Py9lNmwTSeVSUUbc_rpV-6">
          <mxGeometry relative="1" as="geometry" />
        </mxCell>
        <mxCell id="Py9lNmwTSeVSUUbc_rpV-23" value="6、finishApplicationMaster" style="edgeLabel;html=1;align=center;verticalAlign=middle;resizable=0;points=[];" vertex="1" connectable="0" parent="Py9lNmwTSeVSUUbc_rpV-20">
          <mxGeometry x="-0.1554" y="29" relative="1" as="geometry">
            <mxPoint y="14" as="offset" />
          </mxGeometry>
        </mxCell>
      </root>
    </mxGraphModel>
  </diagram>
</mxfile>
